<svg xmlns="http://www.w3.org/2000/svg" version="1.1" xmlns:xlink="http://www.w3.org/1999/xlink" xmlns:svgjs="http://svgjs.dev/svgjs" viewBox="0 0 10.18103683656077 1.7815594315366108"><g transform="matrix(1,0,0,1,1.8539901773379603,0.35377971576830536)"><g><path d=" M 0.753 0.9014999999999999 L 0.378 0.9014999999999999 L 0.321 1.0739999999999998 L 0.012 1.0739999999999998 L 0.3975 0.016499999999999737 L 0.7365 0.016499999999999737 L 1.1205 1.0739999999999998 L 0.81 1.0739999999999998 L 0.753 0.9014999999999999 M 0.6795 0.6764999999999999 L 0.5655 0.3344999999999998 L 0.453 0.6764999999999999 L 0.6795 0.6764999999999999 M 1.5015073242187498 0.016499999999999737 L 1.5015073242187498 0.6299999999999999 Q 1.5015073242187498 0.7154999999999998 1.54125732421875 0.7619999999999998 Q 1.58100732421875 0.8084999999999998 1.6620073242187499 0.8084999999999998 Q 1.74300732421875 0.8084999999999998 1.7842573242187498 0.7612499999999998 Q 1.82550732421875 0.7139999999999999 1.82550732421875 0.6299999999999999 L 1.82550732421875 0.016499999999999737 L 2.11950732421875 0.016499999999999737 L 2.11950732421875 0.6299999999999999 Q 2.11950732421875 0.7754999999999999 2.05800732421875 0.8782499999999999 Q 1.9965073242187499 0.9809999999999999 1.8907573242187499 1.0327499999999998 Q 1.7850073242187499 1.0844999999999998 1.6560073242187499 1.0844999999999998 Q 1.5270073242187499 1.0844999999999998 1.42575732421875 1.0327499999999998 Q 1.32450732421875 0.9809999999999999 1.26675732421875 0.8789999999999998 Q 1.2090073242187498 0.7769999999999999 1.2090073242187498 0.6299999999999999 L 1.2090073242187498 0.016499999999999737 L 1.5015073242187498 0.016499999999999737 M 3.074969970703125 0.016499999999999737 L 3.074969970703125 0.25049999999999983 L 2.792969970703125 0.25049999999999983 L 2.792969970703125 1.0739999999999998 L 2.4989699707031248 1.0739999999999998 L 2.4989699707031248 0.25049999999999983 L 2.219969970703125 0.25049999999999983 L 2.219969970703125 0.016499999999999737 L 3.074969970703125 0.016499999999999737 M 3.4154758300781247 1.0147499999999998 Q 3.290975830078125 0.9449999999999998 3.218225830078125 0.8212499999999998 Q 3.1454758300781247 0.6974999999999998 3.1454758300781247 0.5414999999999999 Q 3.1454758300781247 0.38549999999999984 3.218225830078125 0.2617499999999998 Q 3.290975830078125 0.1379999999999998 3.4154758300781247 0.06899999999999973 Q 3.5399758300781246 -2.220446049250313e-16 3.688475830078125 -2.220446049250313e-16 Q 3.8384758300781248 -2.220446049250313e-16 3.9622258300781246 0.06899999999999973 Q 4.085975830078125 0.1379999999999998 4.157975830078125 0.2617499999999998 Q 4.229975830078125 0.38549999999999984 4.229975830078125 0.5414999999999999 Q 4.229975830078125 0.6974999999999998 4.157975830078125 0.8212499999999998 Q 4.085975830078125 0.9449999999999998 3.9614758300781245 1.0147499999999998 Q 3.8369758300781247 1.0844999999999998 3.688475830078125 1.0844999999999998 Q 3.5399758300781246 1.0844999999999998 3.4154758300781247 1.0147499999999998 M 3.8662258300781245 0.7379999999999998 Q 3.9314758300781247 0.6644999999999999 3.9314758300781247 0.5414999999999999 Q 3.9314758300781247 0.41549999999999987 3.8662258300781245 0.3427499999999998 Q 3.8009758300781247 0.2699999999999998 3.688475830078125 0.2699999999999998 Q 3.5744758300781245 0.2699999999999998 3.5099758300781247 0.3427499999999998 Q 3.4454758300781245 0.41549999999999987 3.4454758300781245 0.5414999999999999 Q 3.4454758300781245 0.6659999999999998 3.5099758300781247 0.7387499999999998 Q 3.5744758300781245 0.8114999999999999 3.688475830078125 0.8114999999999999 Q 3.8009758300781247 0.8114999999999999 3.8662258300781245 0.7379999999999998 M 5.593456787109375 0.016499999999999737 L 5.593456787109375 1.0739999999999998 L 5.299456787109374 1.0739999999999998 L 5.299456787109374 0.4904999999999998 L 5.099956787109375 1.0739999999999998 L 4.853956787109374 1.0739999999999998 L 4.652956787109375 0.4859999999999999 L 4.652956787109375 1.0739999999999998 L 4.358956787109374 1.0739999999999998 L 4.358956787109374 0.016499999999999737 L 4.714456787109374 0.016499999999999737 L 4.979956787109375 0.7034999999999998 L 5.239456787109375 0.016499999999999737 L 5.593456787109375 0.016499999999999737 M 6.4274531249999995 0.9014999999999999 L 6.0524531249999995 0.9014999999999999 L 5.995453124999999 1.0739999999999998 L 5.686453124999999 1.0739999999999998 L 6.071953124999999 0.016499999999999737 L 6.410953125 0.016499999999999737 L 6.794953124999999 1.0739999999999998 L 6.484453125 1.0739999999999998 L 6.4274531249999995 0.9014999999999999 M 6.353953124999999 0.6764999999999999 L 6.2399531249999995 0.3344999999999998 L 6.127453125 0.6764999999999999 L 6.353953124999999 0.6764999999999999 M 7.181960449218749 0.016499999999999737 L 7.181960449218749 1.0739999999999998 L 6.887960449218749 1.0739999999999998 L 6.887960449218749 0.016499999999999737 L 7.181960449218749 0.016499999999999737 M 7.640935546874999 0.8489999999999999 L 7.969435546874999 0.8489999999999999 L 7.969435546874999 1.0739999999999998 L 7.346935546874999 1.0739999999999998 L 7.346935546874999 0.016499999999999737 L 7.640935546874999 0.016499999999999737 L 7.640935546874999 0.8489999999999999" fill="#212121" fill-rule="nonzero"></path></g><g></g><g clip-path="url(#SvgjsClipPath1003)"><g clip-path="url(#SvgjsClipPath10014fbf1121-b950-416d-8265-75e64ca027b6)"><path d=" M -0.40000000000000013 0.5372093925230702 L -0.5875486593905144 0.7247580519135844 L -0.962723831496321 0.3495828798077777 L -0.7751751721058068 0.1620342204172635 Z" fill="#769687" transform="matrix(1,0,0,1,0,0)" fill-rule="nonzero"></path></g><g clip-path="url(#SvgjsClipPath10014fbf1121-b950-416d-8265-75e64ca027b6)"><path d=" M -0.9321903652829446 0.3802048021958493 L -0.943530900500237 0.36886426697855706 L -1.1198046566447506 0.1925905108340434 L -0.9321903652829446 0.004976219472237555 L -0.7446861762048018 0.1925905108340434 L -0.7763956338997549 0.3483852422172332 Z" fill="#d7bb90" transform="matrix(1,0,0,1,0,0)" fill-rule="nonzero"></path></g><g clip-path="url(#SvgjsClipPath10014fbf1121-b950-416d-8265-75e64ca027b6)"><path d=" M -0.9633493115595827 0.34904585591921133 L -0.9746898467768749 0.3377053207019191 L -1.1509636029213883 0.1614315645574055 L -0.9633493115595827 -0.0261827268044004 L -0.7757350201977766 0.1614315645574055 L -0.8075545801763929 0.31722629594059526 Z" fill="#8fb0a1" transform="matrix(1,0,0,1,0,0)" fill-rule="nonzero"></path></g><g clip-path="url(#SvgjsClipPath10014fbf1121-b950-416d-8265-75e64ca027b6)"><path d=" M -0.9633520531064458 -0.026210351467371534 L -0.7758033937159315 0.16133830792314285 L -1.1509785658217382 0.5365134800289496 L -1.3385272252122524 0.3489648206384352 Z" fill="#8fb0a1" transform="matrix(1,0,0,1,0,0)" fill-rule="nonzero"></path></g><g clip-path="url(#SvgjsClipPath10014fbf1121-b950-416d-8265-75e64ca027b6)"><path d=" M -1.1200248612120767 0.5057214055717053 L -1.1313653964293688 0.5170619407889975 L -1.3076391525738824 0.6933356969335112 L -1.4952534439356884 0.5057214055717053 L -1.3076391525738824 0.3181071142098995 L -1.1518444211906926 0.34992667418851564 Z" fill="#212121" transform="matrix(1,0,0,1,0,0)" fill-rule="nonzero"></path></g><g clip-path="url(#SvgjsClipPath10014fbf1121-b950-416d-8265-75e64ca027b6)"><path d=" M -1.1511838074887146 0.5368803518483432 L -1.1625243427060068 0.5481107847819725 L -1.3387980988505204 0.7244946432101492 L -1.5264123902123263 0.5368803518483432 L -1.3387980988505204 0.34926606048653747 L -1.1830033674673306 0.38108562046515354 Z" fill="#d7bb90" transform="matrix(1,0,0,1,0,0)" fill-rule="nonzero"></path></g><g clip-path="url(#SvgjsClipPath10014fbf1121-b950-416d-8265-75e64ca027b6)"><path d=" M -1.5264208130370265 0.5368554136810937 L -1.3388721536465122 0.34930675429057934 L -0.9636969815407055 0.7244819263963861 L -1.1512456409312197 0.9120305857869003 Z" fill="#d7bb90" transform="matrix(1,0,0,1,0,0)" fill-rule="nonzero"></path></g><g clip-path="url(#SvgjsClipPath10014fbf1121-b950-416d-8265-75e64ca027b6)"><path d=" M -0.9941779509852314 0.6938862083518264 L -0.9829475180516022 0.7052267435691187 L -0.8065636596234256 0.8815004997136322 L -0.9941779509852314 1.0690046887917752 L -1.1817922423470373 0.8815004997136322 L -1.149972682368421 0.7257057683304424 Z" fill="#769687" transform="matrix(1,0,0,1,0,0)" fill-rule="nonzero"></path></g><g clip-path="url(#SvgjsClipPath10014fbf1121-b950-416d-8265-75e64ca027b6)"><path d=" M -0.9630190047085935 0.7250451546284644 L -0.9517885717749643 0.7362755875620935 L -0.7755148156304508 0.9126594459902703 L -0.9630190047085935 1.1001636350684132 L -1.1506332960703993 0.9126594459902703 L -1.1188137360917831 0.7568647146070805 Z" fill="#212121" transform="matrix(1,0,0,1,0,0)" fill-rule="nonzero"></path></g><g clip-path="url(#SvgjsClipPath10014fbf1121-b950-416d-8265-75e64ca027b6)"><path d=" M -0.9630812014886347 1.1002103514673713 L -1.1506298608791492 0.9126616920768571 L -0.7754546887733422 0.5374865199710503 L -0.5879060293828278 0.7250351793615646 Z" fill="#212121" transform="matrix(1,0,0,1,0,0)" fill-rule="nonzero"></path></g><g clip-path="url(#SvgjsClipPath10014fbf1121-b950-416d-8265-75e64ca027b6)"><path d=" M -0.8063434550560995 0.5683696049759703 L -0.7950029198388072 0.557029069758678 L -0.6187291636942938 0.3807553136141645 L -0.43122497461615095 0.5683696049759703 L -0.6187291636942938 0.7558737940541133 L -0.7745238950774834 0.7240542340754971 Z" fill="#8fb0a1" transform="matrix(1,0,0,1,0,0)" fill-rule="nonzero"></path></g><g clip-path="url(#SvgjsClipPath10014fbf1121-b950-416d-8265-75e64ca027b6)"><path d=" M -0.7751845087794614 0.5372106586993324 L -0.7639540758458324 0.5258701234820401 L -0.5875702174176557 0.3495963673375265 L -0.40006602833951277 0.5372106586993324 L -0.5875702174176557 0.7247148477774752 L -0.7433649488008454 0.6930053900825222 Z" fill="#769687" transform="matrix(1,0,0,1,0,0)" fill-rule="nonzero"></path></g><g clip-path="url(#SvgjsClipPath10014fbf1121-b950-416d-8265-75e64ca027b6)"><path d=" M -0.4000234958273339 0.5371516769059742 L -0.5875721552178482 0.7247003362964884 L -0.8457337801821262 0.4665387113322106 L -0.658185120791612 0.27899005194169635 Z" fill="#769687" transform="matrix(1,0,0,1,0,0)" fill-rule="nonzero"></path></g></g></g><defs><clipPath id="SvgjsClipPath1003"><path d=" M -1.5264208130370265 -0.026210351467371384 h 1.1264208130370263 v 1.1264207029347426 h -1.1264208130370263 Z"></path></clipPath><clipPath id="SvgjsClipPath10014fbf1121-b950-416d-8265-75e64ca027b6"><path d=" M -1.5264208130370265 -0.026210351467371485 L -0.40000000000000013 -0.026210351467371485 L -0.40000000000000013 1.1002103514673713 L -1.5264208130370265 1.1002103514673713 Z"></path></clipPath></defs></svg>